<svg width="240" height="35" viewBox="0 0 240 35" fill="none" xmlns="http://www.w3.org/2000/svg">
<path d="M67.3728 7.32499L59.0151 26.5149C58.8849 26.8087 58.6916 27.0454 58.4313 27.2254C58.175 27.41 57.8895 27.5 57.5787 27.5C57.272 27.5 56.9907 27.41 56.7345 27.2254C56.4742 27.0454 56.2766 26.8087 56.1381 26.5149L47.793 7.32499H51.3754L57.5787 21.6558L63.8029 7.32499H67.3728ZM72.4042 27.2206H69.204V7.32499H72.4042V27.2206ZM93.7271 15.6507C93.7271 16.4701 93.6347 17.2088 93.454 17.8529C93.2735 18.5018 93.0299 19.0748 92.7232 19.5673C92.4168 20.0646 92.0596 20.4861 91.6608 20.8365C91.2575 21.1918 90.8376 21.476 90.3966 21.6986C89.9598 21.9212 89.5146 22.0821 89.0694 22.1815C88.6242 22.2857 88.2041 22.3379 87.8094 22.3379H80.5729V18.729H87.8094C88.2169 18.6912 88.5906 18.5965 88.9224 18.4449C89.2542 18.2934 89.5398 18.0849 89.7792 17.8293C90.0144 17.5688 90.1991 17.2562 90.3293 16.8915C90.4638 16.5269 90.5267 16.1102 90.5267 15.6507V14.0121C90.4847 13.5575 90.4008 13.1406 90.2705 12.7618C90.1362 12.3829 89.9598 12.061 89.733 11.791C89.5104 11.5258 89.2373 11.3127 88.914 11.1611C88.5948 11.0095 88.2252 10.9289 87.8094 10.9289H80.5983C80.1699 10.9289 79.8464 11.0569 79.6238 11.3078C79.4055 11.5542 79.292 11.9188 79.292 12.3877V27.2206H76.0959V12.3877C76.0959 11.4642 76.2429 10.6779 76.5452 10.0292C76.8435 9.38032 77.2173 8.85941 77.6625 8.46166C78.1119 8.06375 78.5949 7.77492 79.1198 7.59496C79.6449 7.415 80.1321 7.32499 80.5729 7.32499H87.8094C88.5318 7.32499 89.1786 7.4292 89.7539 7.63757C90.3251 7.84595 90.8333 8.12054 91.2701 8.47107C91.7111 8.8168 92.085 9.21456 92.3914 9.66926C92.6981 10.1239 92.9543 10.5975 93.1559 11.09C93.3575 11.5872 93.5003 12.0846 93.5927 12.5913C93.6808 13.0934 93.7271 13.567 93.7271 14.0121V15.6507ZM118.939 19.089H108.834V15.4565H118.939V19.089ZM120.375 27.2206H108.834C108.393 27.2206 107.91 27.1306 107.385 26.9554C106.86 26.7801 106.373 26.4913 105.924 26.0887C105.478 25.6862 105.105 25.1653 104.806 24.5212C104.504 23.877 104.357 23.0908 104.357 22.1579V9.14357C104.357 8.89259 104.399 8.65579 104.479 8.43323C104.563 8.21052 104.672 8.01632 104.819 7.8507C104.962 7.68493 105.13 7.55696 105.327 7.46237C105.525 7.3724 105.739 7.32499 105.97 7.32499H120.375V10.9289H107.557V22.1579C107.557 22.6267 107.666 22.9867 107.889 23.2377C108.107 23.4887 108.435 23.6119 108.859 23.6119H120.375V27.2206ZM131.522 14.4288L136.914 7.32499H141.282L133.689 17.2988L141.232 27.2206H136.889L131.522 20.1736L126.184 27.2206H121.828L129.359 17.2988L121.803 7.32499H126.133L131.522 14.4288ZM160.883 15.6507C160.883 16.4701 160.791 17.2088 160.61 17.8529C160.43 18.5018 160.186 19.0748 159.879 19.5673C159.573 20.0646 159.216 20.4861 158.817 20.8365C158.414 21.1918 157.994 21.476 157.553 21.6986C157.116 21.9212 156.671 22.0821 156.225 22.1815C155.78 22.2857 155.36 22.3379 154.965 22.3379H147.729V18.729H154.965C155.373 18.6912 155.747 18.5965 156.078 18.4449C156.41 18.2934 156.696 18.0849 156.935 17.8293C157.17 17.5688 157.355 17.2562 157.485 16.8915C157.62 16.5269 157.683 16.1102 157.683 15.6507V14.0121C157.641 13.5575 157.557 13.1406 157.427 12.7618C157.292 12.3829 157.116 12.061 156.889 11.791C156.667 11.5258 156.393 11.3127 156.07 11.1611C155.751 11.0095 155.381 10.9289 154.965 10.9289H147.754C147.326 10.9289 147.003 11.0569 146.78 11.3078C146.562 11.5542 146.448 11.9188 146.448 12.3877V27.2206H143.252V12.3877C143.252 11.4642 143.399 10.6779 143.701 10.0292C144 9.38032 144.373 8.85941 144.819 8.46166C145.268 8.06375 145.751 7.77492 146.276 7.59496C146.801 7.415 147.288 7.32499 147.729 7.32499H154.965C155.688 7.32499 156.335 7.4292 156.91 7.63757C157.481 7.84595 157.989 8.12054 158.426 8.47107C158.867 8.8168 159.241 9.21456 159.548 9.66926C159.854 10.1239 160.11 10.5975 160.312 11.09C160.514 11.5872 160.656 12.0846 160.749 12.5913C160.837 13.0934 160.883 13.567 160.883 14.0121V15.6507ZM181.248 14.0121C181.248 14.8362 181.156 15.5703 180.975 16.219C180.795 16.8631 180.551 17.4362 180.245 17.9335C179.938 18.426 179.581 18.8474 179.178 19.2027C178.779 19.5531 178.359 19.8421 177.918 20.0694C177.481 20.2966 177.036 20.4578 176.591 20.5619C176.141 20.6613 175.721 20.7135 175.327 20.7135L182.009 27.2206H177.065L170.396 20.7135H168.094V17.1046H175.327C175.73 17.0669 176.099 16.9721 176.431 16.8205C176.763 16.6689 177.049 16.4606 177.292 16.2048C177.532 15.9444 177.721 15.6318 177.851 15.2671C177.981 14.9025 178.048 14.4856 178.048 14.0121V11.7342C178.048 11.5305 178.027 11.3789 177.981 11.2701C177.935 11.1658 177.876 11.0853 177.809 11.0379C177.737 10.9859 177.666 10.9527 177.586 10.9433C177.506 10.9337 177.435 10.9289 177.372 10.9289H166.813V27.2206H163.613V9.14357C163.613 8.89259 163.655 8.65579 163.739 8.43323C163.819 8.21052 163.932 8.01632 164.075 7.8507C164.218 7.68493 164.39 7.55696 164.587 7.46237C164.785 7.3724 164.999 7.32499 165.226 7.32499H177.372C178.086 7.32499 178.686 7.4718 179.178 7.76073C179.674 8.05432 180.073 8.41889 180.379 8.8594C180.686 9.2951 180.908 9.76866 181.043 10.2802C181.181 10.7869 181.248 11.2652 181.248 11.7104V14.0121ZM198.968 19.089H188.863V15.4565H198.968V19.089ZM200.404 27.2206H188.863C188.422 27.2206 187.939 27.1306 187.414 26.9554C186.889 26.7801 186.402 26.4913 185.952 26.0887C185.507 25.6862 185.133 25.1653 184.835 24.5212C184.533 23.877 184.386 23.0908 184.386 22.1579V9.14357C184.386 8.89259 184.428 8.65579 184.508 8.43323C184.592 8.21052 184.701 8.01632 184.848 7.8507C184.991 7.68493 185.159 7.55696 185.356 7.46237C185.553 7.3724 185.768 7.32499 185.999 7.32499H200.404V10.9289H187.586V22.1579C187.586 22.6267 187.695 22.9867 187.918 23.2377C188.136 23.4887 188.464 23.6119 188.888 23.6119H200.404V27.2206ZM220.387 21.367C220.387 22.0774 220.307 22.7167 220.148 23.285C219.988 23.8581 219.778 24.3554 219.518 24.7912C219.253 25.2267 218.947 25.5962 218.594 25.904C218.241 26.2071 217.876 26.4581 217.498 26.6523C217.12 26.8465 216.738 26.9886 216.347 27.0833C215.956 27.1732 215.591 27.2206 215.247 27.2206H202.903V23.6119H215.247C215.86 23.6119 216.339 23.4082 216.679 23.0008C217.019 22.5937 217.191 22.0489 217.191 21.367C217.191 21.0307 217.145 20.7277 217.057 20.4482C216.964 20.1736 216.834 19.932 216.666 19.7283C216.498 19.5247 216.292 19.3685 216.053 19.2548C215.809 19.1458 215.541 19.089 215.247 19.089H207.888C207.372 19.089 206.813 18.9848 206.217 18.7764C205.616 18.568 205.062 18.2365 204.549 17.7724C204.033 17.3083 203.609 16.7021 203.268 15.9538C202.928 15.2055 202.756 14.2915 202.756 13.207C202.756 12.1225 202.928 11.2131 203.268 10.465C203.609 9.72128 204.033 9.11516 204.549 8.65104C205.062 8.1821 205.616 7.84595 206.217 7.63757C206.813 7.4292 207.372 7.32499 207.888 7.32499H218.779V10.9289H207.888C207.279 10.9289 206.809 11.1375 206.469 11.5542C206.129 11.971 205.956 12.5203 205.956 13.207C205.956 13.8985 206.129 14.4478 206.469 14.8504C206.809 15.2529 207.279 15.4565 207.888 15.4565H215.247H215.272C215.616 15.4661 215.982 15.5181 216.364 15.6129C216.75 15.7123 217.137 15.8638 217.515 16.0628C217.897 16.2664 218.262 16.5269 218.607 16.8347C218.951 17.1472 219.257 17.5167 219.522 17.9523C219.787 18.3881 220.001 18.8854 220.156 19.4489C220.312 20.0124 220.387 20.6519 220.387 21.367ZM240.001 21.367C240.001 22.0774 239.921 22.7167 239.761 23.285C239.602 23.8581 239.392 24.3554 239.131 24.7912C238.867 25.2267 238.56 25.5962 238.207 25.904C237.855 26.2071 237.489 26.4581 237.111 26.6523C236.733 26.8465 236.351 26.9886 235.96 27.0833C235.57 27.1732 235.204 27.2206 234.86 27.2206H222.517V23.6119H234.86C235.473 23.6119 235.952 23.4082 236.292 23.0008C236.632 22.5937 236.805 22.0489 236.805 21.367C236.805 21.0307 236.758 20.7277 236.67 20.4482C236.578 20.1736 236.448 19.932 236.28 19.7283C236.112 19.5247 235.906 19.3685 235.666 19.2548C235.423 19.1458 235.154 19.089 234.86 19.089H227.502C226.985 19.089 226.427 18.9848 225.83 18.7764C225.23 18.568 224.675 18.2365 224.163 17.7724C223.646 17.3083 223.222 16.7021 222.882 15.9538C222.542 15.2055 222.37 14.2915 222.37 13.207C222.37 12.1225 222.542 11.2131 222.882 10.465C223.222 9.72128 223.646 9.11516 224.163 8.65104C224.675 8.1821 225.23 7.84595 225.83 7.63757C226.427 7.4292 226.985 7.32499 227.502 7.32499H238.392V10.9289H227.502C226.893 10.9289 226.422 11.1375 226.082 11.5542C225.742 11.971 225.57 12.5203 225.57 13.207C225.57 13.8985 225.742 14.4478 226.082 14.8504C226.422 15.2529 226.893 15.4565 227.502 15.4565H234.86H234.885C235.23 15.4661 235.595 15.5181 235.977 15.6129C236.364 15.7123 236.75 15.8638 237.128 16.0628C237.51 16.2664 237.876 16.5269 238.22 16.8347C238.564 17.1472 238.871 17.5167 239.135 17.9523C239.4 18.3881 239.614 18.8854 239.77 19.4489C239.925 20.0124 240.001 20.6519 240.001 21.367Z" fill="#111111"/>
<path d="M41.46 0.5L35.0409 12.4315C34.8682 11.6616 34.6367 11.0935 34.2805 10.5187C33.785 9.71966 33.0482 8.90778 31.5994 8.99893C30.9452 9.04017 30.1457 9.26539 29.2094 9.48202L34.0283 0.5H41.46ZM30.9722 19.994L24.0611 32.8399C23.79 33.3348 23.3878 33.7339 22.8458 34.0371C22.3125 34.3484 21.7178 34.5 21.0709 34.5C20.4327 34.5 19.8469 34.3484 19.3135 34.0371C18.7715 33.7339 18.3605 33.3348 18.0719 32.8399L11.1333 19.9234C11.2831 19.9898 11.4374 20.0558 11.5955 20.1209C12.7779 20.6079 14.1788 21.0418 15.4254 21.1944C16.6721 21.3469 17.7645 21.2179 18.5806 21.0946C18.7764 21.065 18.9563 21.0359 19.1226 21.0073L21.0709 24.6513L22.9672 21.1168C23.4894 21.2528 24.0742 21.3898 24.6661 21.4643C25.7842 21.605 26.9279 21.523 28.1811 21.1475C29.1365 20.8612 30.1556 20.4046 30.9722 19.994ZM6.90821 12.0583L0.699219 0.5H8.15723L12.9213 9.40987C12.2409 9.5553 11.4733 9.52162 10.6418 9.8665C9.5657 10.3128 8.38279 11.3926 7.3461 11.8827C7.19738 11.9531 7.05147 12.0112 6.90821 12.0583Z" fill="#111111"/>
<mask id="mask0_3753_5508" style="mask-type:luminance" maskUnits="userSpaceOnUse" x="0" y="0" width="42" height="35">
<path d="M41.46 0.5L35.0409 12.4315C34.8682 11.6616 34.6367 11.0935 34.2805 10.5187C33.785 9.71966 33.0482 8.90778 31.5994 8.99893C30.9452 9.04017 30.1457 9.26539 29.2094 9.48202L34.0283 0.5H41.46ZM30.9722 19.994L24.0611 32.8399C23.79 33.3348 23.3878 33.7339 22.8458 34.0371C22.3125 34.3484 21.7178 34.5 21.0709 34.5C20.4327 34.5 19.8469 34.3484 19.3135 34.0371C18.7715 33.7339 18.3605 33.3348 18.0719 32.8399L11.1333 19.9234C11.2831 19.9898 11.4374 20.0558 11.5955 20.1209C12.7779 20.6079 14.1788 21.0418 15.4254 21.1944C16.6721 21.3469 17.7645 21.2179 18.5806 21.0946C18.7764 21.065 18.9563 21.0359 19.1226 21.0073L21.0709 24.6513L22.9672 21.1168C23.4894 21.2528 24.0742 21.3898 24.6661 21.4643C25.7842 21.605 26.9279 21.523 28.1811 21.1475C29.1365 20.8612 30.1556 20.4046 30.9722 19.994ZM6.90821 12.0583L0.699219 0.5H8.15723L12.9213 9.40987C12.2409 9.5553 11.4733 9.52162 10.6418 9.8665C9.5657 10.3128 8.38279 11.3926 7.3461 11.8827C7.19738 11.9531 7.05147 12.0112 6.90821 12.0583Z" fill="white"/>
</mask>
<g mask="url(#mask0_3753_5508)">
<path fill-rule="evenodd" clip-rule="evenodd" d="M-5.4707 -4.06058H49.3905V12.4078H-5.4707V-4.06058Z" fill="#111111" stroke="#111111" stroke-width="0.853155" stroke-miterlimit="22.9256"/>
</g>
<path fill-rule="evenodd" clip-rule="evenodd" d="M39.0478 13.4558C37.5415 13.8929 36.1913 14.7041 34.8989 15.5837C32.0409 17.5051 29.3977 19.863 25.5678 19.8558H25.4238C25.4391 19.8141 25.7093 19.5088 25.7582 19.4503C26.7391 18.2704 28.084 16.7321 30.375 14.8833C30.4465 14.83 30.5228 14.7737 30.5884 14.7147C33.0573 12.7559 36.0234 12.407 39.0478 13.4558ZM24.7027 19.308L24.2871 19.8031C23.4272 19.7136 22.6078 19.4764 21.852 19.118C24.0527 17.5068 25.2486 15.0439 25.1183 12.4709C26.7487 11.4888 28.5565 10.7741 30.2017 9.81084C30.2017 9.8318 30.2074 9.85831 30.2074 9.87927C30.3228 11.3699 30.1381 12.8921 29.659 14.3301C28.8568 14.9759 28.0891 15.651 27.3628 16.3687C27.247 16.4793 27.1376 16.59 27.0395 16.6954C26.0239 17.7119 25.2968 18.5864 24.7027 19.308ZM21.027 18.6127C19.0895 17.3328 17.9303 15.2571 17.8648 13.0766L17.9109 12.0441C17.9225 11.9598 17.9282 11.8756 17.9457 11.7913V11.7702C18.2538 8.88992 19.7362 6.31289 21.027 3.72161C22.3123 6.30924 23.8012 8.89606 24.1026 11.7702C24.124 11.847 24.1316 11.9621 24.1431 12.0441L24.189 13.0766C24.1158 15.2466 22.9581 17.3364 21.027 18.6127ZM17.7609 19.8031C17.634 19.6449 17.4954 19.4818 17.3512 19.308C16.7567 18.5864 16.0297 17.7119 15.0084 16.6954C14.7785 16.4483 14.5262 16.2187 14.2871 15.9789C13.674 15.4128 13.0492 14.8568 12.3944 14.3301C11.9156 12.8975 11.725 11.3805 11.8463 9.89509C11.8463 9.86867 11.852 9.83714 11.852 9.81084C13.4927 10.7777 15.3063 11.4898 16.9358 12.4709C16.7921 15.0143 18.0133 17.5345 20.2017 19.118C19.4459 19.4764 18.6265 19.7136 17.7609 19.8031ZM16.4799 19.8558C13.6063 19.8612 11.3616 18.5123 9.2439 17.043C7.31598 15.7048 5.32133 14.127 3.00051 13.4558C6.02249 12.4078 8.99243 12.7571 11.4596 14.7147C11.5325 14.7646 11.601 14.8295 11.6732 14.8833C13.9583 16.7269 15.3027 18.2596 16.2894 19.4395C16.3991 19.5715 16.503 19.7028 16.6068 19.8242C16.6125 19.8349 16.6182 19.8397 16.63 19.8558H16.4799ZM32.229 5.52146L30.9346 8.30432L30.3056 8.70982C28.6547 9.79799 26.7458 10.5386 25.0142 11.5175C24.5806 7.94839 22.4933 4.86005 21.027 1.59885C19.5606 4.85756 17.4726 7.95201 17.0396 11.5175C15.3054 10.5374 13.4048 9.80152 11.7481 8.70982L11.1135 8.30432V8.31476L9.60552 5.07539C9.45029 5.10832 9.26387 5.14964 9.03879 5.20108C7.76025 5.4928 7.96822 5.30511 7.41262 5.81229L4.05788 5.89959L6.91274 12.0389C4.65078 11.8914 2.62543 12.5867 1.3212 13.203L0 13.8244L1.4712 14.0037C3.92618 14.3116 5.90575 15.7725 7.80714 17.1113C10.4207 18.9705 12.9528 20.7088 16.4569 20.7088C16.5957 20.7088 16.7348 20.6988 16.8722 20.6988C17.0281 20.6988 17.1781 20.6988 17.3397 20.6934L18.4475 20.572C19.365 20.4137 20.2363 20.1084 21.027 19.6766C21.8174 20.1084 22.6883 20.4137 23.6064 20.572L24.7138 20.6934C24.8754 20.6989 25.037 20.6988 25.1987 20.6988C29.6302 20.8536 32.4229 18.3214 35.6718 16.116C37.2182 15.0783 38.7763 14.2302 40.5824 14.0037L42.0482 13.8244L40.7322 13.203C39.4226 12.5867 37.3915 11.8861 35.124 12.0389L38.0172 5.81229H35.1617C33.6055 5.81229 33.2708 5.63759 32.4835 5.63759L32.229 5.52146Z" fill="#111111"/>
</svg>
